# xmcd CD database file
#
# Track frame offsets:
#	150
#	14635
#	30618
#	44125
#	57382
#	73221
#	91327
#	112486
#	125404
#	134657
#	148057
#	164971
#	176094
#	191016
#	204978
#	220399
#	235506
#	251009
#
# Disc length: 3553 seconds
#
# Revision: 0
# Processed by: cddbd v1.5.2PL0 Copyright (c) Steve Scherf et al.
# Submitted via: CDex 1.70beta2
#
DISCID=2b0ddf12
DTITLE=Billie Holiday - The Collection
DYEAR=2006
DGENRE=Jazz
TTITLE0=God Bless This Child
TTITLE1=Blue Moon
TTITLE2=I Only Have Eyes For You
TTITLE3=That Old Devil Called Love
TTITLE4=You Turned The Tables On Me
TTITLE5=Always
TTITLE6=Ain't Misbehavin'
TTITLE7=Yesterdays
TTITLE8=Blue Turning Grey Over You
TTITLE9=East Of The Sun
TTITLE10=Stormy Weather
TTITLE11=Them There Eyes
TTITLE12=Do Your Duty
TTITLE13=Say It Isn't So
TTITLE14=Ain't Nobody's Business If I Do It
TTITLE15=Baby, Get Lost
TTITLE16=Tenderly
TTITLE17=You're My Thrill
EXTD=YEAR: 2006
EXTT0=
EXTT1=
EXTT2=
EXTT3=
EXTT4=
EXTT5=
EXTT6=
EXTT7=
EXTT8=
EXTT9=
EXTT10=
EXTT11=
EXTT12=
EXTT13=
EXTT14=
EXTT15=
EXTT16=
EXTT17=
PLAYORDER=
